<svg width="20" height="20" viewBox="0 0 20 20" fill="none" xmlns="http://www.w3.org/2000/svg">
<path d="M13.6378 0.0354004H5.95818C2.83713 0.0354004 0.297974 2.57455 0.297974 5.6956V13.3752C0.297974 16.4962 2.83713 19.0354 5.95818 19.0354H13.6378C16.7588 19.0354 19.298 16.4962 19.298 13.3752V5.6956C19.2979 2.57455 16.7588 0.0354004 13.6378 0.0354004ZM17.3866 13.3752C17.3866 15.4456 15.7082 17.124 13.6378 17.124H5.95818C3.88779 17.124 2.20937 15.4456 2.20937 13.3752V5.6956C2.20937 3.62518 3.88779 1.9468 5.95818 1.9468H13.6378C15.7082 1.9468 17.3866 3.62518 17.3866 5.6956V13.3752Z" fill="#AFB5BD"/>
<path d="M9.79811 4.62109C7.08848 4.62109 4.88403 6.82554 4.88403 9.53513C4.88403 12.2447 7.08848 14.4492 9.79811 14.4492C12.5077 14.4492 14.7122 12.2448 14.7122 9.53513C14.7122 6.82551 12.5077 4.62109 9.79811 4.62109ZM9.79811 12.5378C8.13976 12.5378 6.79543 11.1935 6.79543 9.53517C6.79543 7.87682 8.1398 6.53249 9.79811 6.53249C11.4565 6.53249 12.8008 7.87682 12.8008 9.53517C12.8008 11.1935 11.4564 12.5378 9.79811 12.5378Z" fill="#AFB5BD"/>
<path d="M14.7216 5.8355C15.3719 5.8355 15.8991 5.30831 15.8991 4.65798C15.8991 4.00766 15.3719 3.48047 14.7216 3.48047C14.0713 3.48047 13.5441 4.00766 13.5441 4.65798C13.5441 5.30831 14.0713 5.8355 14.7216 5.8355Z" fill="#AFB5BD"/>
</svg>
