<svg width="44" height="44" viewBox="0 0 44 44" fill="none" xmlns="http://www.w3.org/2000/svg">
<circle cx="22" cy="22" r="22" fill="#3772E1"/>
<path fill-rule="evenodd" clip-rule="evenodd" d="M14.6667 20.1666C14.6667 16.1166 17.9499 12.8333 22 12.8333C26.0501 12.8333 29.3334 16.1166 29.3334 20.1666C29.3334 23.6101 27.6617 24.9572 26.1032 26.213C25.0812 27.0366 24.1078 27.821 23.6867 29.1316L23.2192 30.5433C23.0881 30.9332 22.7133 31.1881 22.3025 31.1666H21.7892C21.3784 31.1881 21.0036 30.9332 20.8725 30.5433L20.405 29.1316C19.967 27.8248 18.98 27.0412 17.946 26.2203C16.3616 24.9623 14.6667 23.6167 14.6667 20.1666ZM19.25 20.1666C19.25 21.6854 20.4812 22.9166 22 22.9166C22.7294 22.9166 23.4288 22.6269 23.9446 22.1112C24.4603 21.5955 24.75 20.896 24.75 20.1666C24.75 18.6479 23.5188 17.4166 22 17.4166C20.4812 17.4166 19.25 18.6479 19.25 20.1666Z" fill="white"/>
</svg>
