<svg width="44" height="44" viewBox="0 0 44 44" fill="none" xmlns="http://www.w3.org/2000/svg">
<circle cx="22" cy="22" r="22" fill="#3772E1"/>
<path fill-rule="evenodd" clip-rule="evenodd" d="M27.5 14.6666H28.4167C29.4292 14.6666 30.25 15.4875 30.25 16.5V28.4166C30.25 29.4292 29.4292 30.25 28.4167 30.25H15.5833C14.5708 30.25 13.75 29.4292 13.75 28.4166V16.5C13.75 15.4875 14.5708 14.6666 15.5833 14.6666H16.5V13.2916C16.5 13.0385 16.7052 12.8333 16.9583 12.8333H17.875C18.1281 12.8333 18.3333 13.0385 18.3333 13.2916V14.6666H25.6667V13.2916C25.6667 13.0385 25.8719 12.8333 26.125 12.8333H27.0417C27.2948 12.8333 27.5 13.0385 27.5 13.2916V14.6666ZM15.5833 28.4166H28.4167V18.3333H15.5833V28.4166Z" fill="white"/>
<rect x="17" y="20" width="2" height="2" fill="white"/>
</svg>
