<svg width="44" height="44" viewBox="0 0 44 44" fill="none" xmlns="http://www.w3.org/2000/svg">
<circle cx="22" cy="22" r="22" fill="#3772E1"/>
<path fill-rule="evenodd" clip-rule="evenodd" d="M22 12.8333C16.9374 12.8333 12.8334 16.9374 12.8334 22C12.8334 27.0626 16.9374 31.1666 22 31.1666C27.0627 31.1666 31.1667 27.0626 31.1667 22C31.1667 19.5688 30.2009 17.2373 28.4819 15.5182C26.7628 13.7991 24.4312 12.8333 22 12.8333ZM22 29.3333C17.95 29.3333 14.6667 26.0501 14.6667 22C14.6667 17.9499 17.95 14.6666 22 14.6666C26.0501 14.6666 29.3334 17.9499 29.3334 22C29.3334 23.9449 28.5608 25.8102 27.1855 27.1854C25.8102 28.5607 23.945 29.3333 22 29.3333ZM22.1405 16.6272C22.2328 16.5384 22.358 16.4923 22.4859 16.5L22.5225 16.5183C24.5629 16.7132 26.3256 18.0265 27.0961 19.9258C27.8666 21.8251 27.5171 23.9953 26.1892 25.5566C26.1025 25.6492 25.9814 25.7017 25.8546 25.7017C25.7278 25.7017 25.6067 25.6492 25.52 25.5566L22 22.0275V16.9675C21.9972 16.8394 22.0482 16.716 22.1405 16.6272Z" fill="white"/>
</svg>
