<svg width="44" height="44" viewBox="0 0 44 44" fill="none" xmlns="http://www.w3.org/2000/svg">
<circle cx="22" cy="22" r="22" fill="#3772E1"/>
<path fill-rule="evenodd" clip-rule="evenodd" d="M30.1125 20.5884C30.2037 20.9168 30.25 21.256 30.25 21.5967V28.4167C30.25 28.923 29.8396 29.3334 29.3333 29.3334H28.4167C27.9104 29.3334 27.5 28.923 27.5 28.4167V27.5001H16.5V28.4167C16.5 28.923 16.0896 29.3334 15.5833 29.3334H14.6667C14.1604 29.3334 13.75 28.923 13.75 28.4167V21.5967C13.7492 21.2529 13.7955 20.9106 13.8875 20.5792L15.2075 15.9959C15.4304 15.2165 16.1386 14.676 16.9492 14.6667H27.0325C27.8524 14.6691 28.5711 15.2156 28.7925 16.0051L30.1125 20.5884ZM16.9675 16.2709C16.8657 16.2709 16.776 16.3381 16.7475 16.4359L15.6842 20.1667H28.3158L27.2708 16.4359C27.2423 16.3381 27.1527 16.2709 27.0508 16.2709H16.9675ZM18.3333 23.8334C18.3333 24.3397 17.9229 24.7501 17.4167 24.7501H16.5C15.9937 24.7501 15.5833 24.3397 15.5833 23.8334V22.9167C15.5833 22.4105 15.9937 22.0001 16.5 22.0001H17.4167C17.9229 22.0001 18.3333 22.4105 18.3333 22.9167V23.8334ZM27.5 24.7501C28.0063 24.7501 28.4167 24.3397 28.4167 23.8334V22.9167C28.4167 22.4105 28.0063 22.0001 27.5 22.0001H26.5833C26.0771 22.0001 25.6667 22.4105 25.6667 22.9167V23.8334C25.6667 24.3397 26.0771 24.7501 26.5833 24.7501H27.5Z" fill="white"/>
</svg>
