<svg width="20" height="17" viewBox="0 0 20 17" fill="none" xmlns="http://www.w3.org/2000/svg">
<path fill-rule="evenodd" clip-rule="evenodd" d="M17.323 4.59985C17.33 4.76985 17.334 4.94085 17.334 5.11285C17.334 10.3448 13.352 16.3768 6.07 16.3768C3.834 16.3768 1.753 15.7218 0 14.5988C0.31 14.6348 0.625 14.6538 0.945 14.6538C2.8 14.6538 4.507 14.0208 5.862 12.9588C4.129 12.9268 2.667 11.7818 2.164 10.2088C2.405 10.2558 2.653 10.2808 2.908 10.2808C3.269 10.2808 3.619 10.2318 3.951 10.1418C2.14 9.77785 0.776 8.17785 0.776 6.25985C0.776 6.24285 0.776 6.22585 0.776 6.20985C1.31 6.50585 1.92 6.68385 2.569 6.70485C1.507 5.99485 0.808 4.78285 0.808 3.40985C0.808 2.68385 1.003 2.00385 1.344 1.41885C3.297 3.81385 6.214 5.39085 9.504 5.55585C9.437 5.26585 9.402 4.96385 9.402 4.65285C9.402 2.46685 11.174 0.693848 13.361 0.693848C14.5 0.693848 15.529 1.17485 16.251 1.94485C17.153 1.76685 18 1.43785 18.765 0.983848C18.47 1.90785 17.842 2.68385 17.024 3.17385C17.825 3.07885 18.588 2.86585 19.298 2.55085C18.767 3.34485 18.096 4.04185 17.323 4.59985" fill="#AFB5BD"/>
</svg>
