<svg width="18" height="21" viewBox="0 0 18 21" fill="none" xmlns="http://www.w3.org/2000/svg">
<path fill-rule="evenodd" clip-rule="evenodd" d="M4.58847 4.72956L3.17047 0.0705566H4.37047L5.14447 3.15556H5.22147L5.95747 0.0705566H7.16847L5.78047 4.58556V7.78956H4.58847V4.72956ZM7.11447 3.39656C7.11447 2.95656 7.25747 2.60456 7.54247 2.34256C7.82647 2.08156 8.21047 1.95056 8.69247 1.95056C9.13047 1.95056 9.48947 2.08856 9.76947 2.36356C10.0495 2.63956 10.1895 2.99556 10.1895 3.42856V6.36856C10.1895 6.85756 10.0515 7.24056 9.77647 7.51656C9.50147 7.79256 9.12447 7.93256 8.64347 7.93256C8.18047 7.93256 7.80947 7.79056 7.53147 7.50256C7.25447 7.21756 7.11447 6.83256 7.11447 6.34856V3.39656ZM8.20347 6.45556C8.20347 6.61256 8.24147 6.73356 8.31847 6.81856C8.39347 6.90356 8.50047 6.94656 8.64047 6.94656C8.78347 6.94656 8.89847 6.90256 8.98347 6.81556C9.06747 6.72756 9.10947 6.60856 9.10947 6.45556V3.35356C9.10947 3.22956 9.06647 3.12856 8.98047 3.05156C8.89447 2.97556 8.77947 2.93856 8.64047 2.93856C8.51147 2.93856 8.40647 2.97556 8.32547 3.05156C8.24547 3.12856 8.20347 3.22956 8.20347 3.35356V6.45556ZM11.8255 7.87256C12.0255 7.87256 12.2305 7.80956 12.4415 7.69056C12.6525 7.56956 12.8555 7.39156 13.0505 7.16056V7.78956H14.1095V2.09456H13.0505V6.41656C12.9505 6.54156 12.8415 6.64356 12.7225 6.72356C12.6035 6.80356 12.5055 6.84256 12.4275 6.84256C12.3275 6.84256 12.2555 6.81356 12.2125 6.75256C12.1675 6.69256 12.1465 6.59556 12.1465 6.45956V2.09456H11.0875V6.85456C11.0875 7.19456 11.1495 7.44756 11.2745 7.61756C11.3975 7.78656 11.5815 7.87256 11.8255 7.87256ZM11.0665 14.0126C10.9905 14.0126 10.9165 14.0316 10.8445 14.0696C10.7695 14.1076 10.6955 14.1636 10.6245 14.2426V17.7906C10.7105 17.8836 10.7935 17.9506 10.8745 17.9916C10.9555 18.0326 11.0405 18.0526 11.1315 18.0526C11.2605 18.0526 11.3565 18.0126 11.4155 17.9326C11.4785 17.8526 11.5085 17.7226 11.5085 17.5406V14.6006C11.5085 14.4076 11.4705 14.2626 11.3955 14.1636C11.3205 14.0626 11.2095 14.0126 11.0665 14.0126ZM14.9585 14.0346C14.7905 14.0346 14.6695 14.0846 14.5955 14.1886C14.5235 14.2916 14.4865 14.4616 14.4865 14.7026V15.2786H15.4215V14.7026C15.4215 14.4616 15.3845 14.2916 15.3105 14.1886C15.2375 14.0846 15.1205 14.0346 14.9585 14.0346ZM17.9545 15.1256C17.9565 16.2146 17.9195 17.3036 17.8375 18.3946C17.8375 19.7686 16.7085 20.8846 15.3165 20.8846C13.3295 20.9686 11.2995 21.0046 9.22847 20.9996C7.15647 21.0046 5.12447 20.9686 3.13947 20.8846C1.74947 20.8846 0.620474 19.7686 0.620474 18.3946C0.536474 17.3036 0.499474 16.2146 0.504474 15.1256C0.499474 14.0376 0.536474 12.9486 0.620474 11.8576C0.620474 10.4826 1.74947 9.36756 3.13947 9.36756C5.02747 9.29056 6.95547 9.25056 8.92047 9.25056C9.02347 9.25056 9.12547 9.25056 9.22847 9.25056C9.33047 9.25056 9.43347 9.25056 9.53547 9.25056C11.5015 9.25056 13.4295 9.29056 15.3165 9.36756C16.7085 9.36756 17.8375 10.4826 17.8375 11.8576C17.9195 12.9486 17.9565 14.0376 17.9545 15.1256ZM4.28147 12.2766H5.51447V11.1556H1.85547V12.2766H3.08847V18.8756H4.28147V12.2766ZM8.52347 13.1806H7.46447V17.5026C7.36447 17.6276 7.25547 17.7296 7.13747 17.8096C7.01747 17.8886 6.91847 17.9286 6.84147 17.9286C6.74147 17.9286 6.67047 17.8986 6.62647 17.8386C6.58147 17.7786 6.55947 17.6806 6.55947 17.5456V13.1806H5.50047V17.9406C5.50047 18.2786 5.56347 18.5346 5.68647 18.7046C5.81147 18.8726 5.99547 18.9576 6.23947 18.9576C6.43847 18.9576 6.64347 18.8966 6.85547 18.7766C7.06647 18.6556 7.26847 18.4786 7.46447 18.2476V18.8756H8.52347V13.1806ZM12.5975 14.5366C12.5975 14.0716 12.5095 13.7176 12.3335 13.4736C12.1555 13.2316 11.9005 13.1086 11.5665 13.1086C11.4025 13.1086 11.2395 13.1546 11.0785 13.2456C10.9195 13.3346 10.7675 13.4666 10.6245 13.6406V11.1556H9.55547V18.8756H10.6245V18.4366C10.7645 18.6116 10.9145 18.7386 11.0765 18.8216C11.2385 18.9056 11.4225 18.9476 11.6305 18.9476C11.9435 18.9476 12.1835 18.8386 12.3495 18.6246C12.5155 18.4096 12.5975 18.0996 12.5975 17.6956V14.5366ZM16.5115 14.7096C16.5115 14.1706 16.3805 13.7566 16.1205 13.4686C15.8615 13.1806 15.4895 13.0366 15.0055 13.0366C14.5315 13.0366 14.1445 13.1926 13.8435 13.5026C13.5445 13.8156 13.3965 14.2166 13.3965 14.7096V17.2666C13.3965 17.8156 13.5325 18.2476 13.8045 18.5596C14.0775 18.8726 14.4505 19.0286 14.9235 19.0286C15.4505 19.0286 15.8475 18.8816 16.1125 18.5866C16.3785 18.2906 16.5115 17.8506 16.5115 17.2666V16.8396H15.4215V17.2356C15.4215 17.5716 15.3865 17.7866 15.3165 17.8846C15.2475 17.9826 15.1225 18.0326 14.9485 18.0326C14.7785 18.0326 14.6615 17.9756 14.5915 17.8586C14.5195 17.7436 14.4865 17.5346 14.4865 17.2356V16.1616H16.5115V14.7096Z" fill="#AFB5BD"/>
</svg>
